# xmcd
#
# Track frame offsets: 
#        150
#        10380
#        25372
#        37665
#        52930
#        65402
#        83690
#
# Disc length: 1318 seconds
#
# Revision: 0
# Processed by: cddbd v1.5.2PL0 Copyright (c) Steve Scherf et al.
# Submitted via: ExactAudioCopy v0.95b3
#
DISCID=48052407
DTITLE=The Byrds  - Monterey Pop 
DYEAR=1900
DGENRE=
TTITLE0=Renaissance Fair
TTITLE1=Have You Seen Her Face
TTITLE2=Hey Joe (Where You Gonna Go)
TTITLE3=He Was A Friend Of Mine
TTITLE4=Lady Friend
TTITLE5=Chimes Of Freedom
TTITLE6=So You Want To Be A Rock'n'Roll Star
EXTD=
EXTT0=
EXTT1=
EXTT2=
EXTT3=
EXTT4=
EXTT5=
EXTT6=
PLAYORDER=
